# Tiled2Unity generated file. Do not modify by hand.
# Wavefront file for 'level_02_mesh_0002.obj'

# Vertices (Count = 404)
v -6.08 -3.36 0
v -6.24 -3.36 0
v -6.24 -3.2 0
v -6.08 -3.2 0
v -3.36 -3.52 0
v -3.52 -3.52 0
v -3.52 -3.36 0
v -3.36 -3.36 0
v -3.52 -3.52 0
v -3.68 -3.52 0
v -3.68 -3.36 0
v -3.52 -3.36 0
v -3.68 -3.52 0
v -3.84 -3.52 0
v -3.84 -3.36 0
v -3.68 -3.36 0
v -3.84 -3.52 0
v -4 -3.52 0
v -4 -3.36 0
v -3.84 -3.36 0
v -4 -3.52 0
v -4.16 -3.52 0
v -4.16 -3.36 0
v -4 -3.36 0
v -4.16 -3.52 0
v -4.32 -3.52 0
v -4.32 -3.36 0
v -4.16 -3.36 0
v -4.48 -3.52 0
v -4.64 -3.52 0
v -4.64 -3.36 0
v -4.48 -3.36 0
v -4.64 -3.52 0
v -4.8 -3.52 0
v -4.8 -3.36 0
v -4.64 -3.36 0
v -4.8 -3.52 0
v -4.96 -3.52 0
v -4.96 -3.36 0
v -4.8 -3.36 0
v -4.96 -3.52 0
v -5.12 -3.52 0
v -5.12 -3.36 0
v -4.96 -3.36 0
v -5.12 -3.52 0
v -5.28 -3.52 0
v -5.28 -3.36 0
v -5.12 -3.36 0
v -5.28 -3.52 0
v -5.44 -3.52 0
v -5.44 -3.36 0
v -5.28 -3.36 0
v -5.44 -3.52 0
v -5.6 -3.52 0
v -5.6 -3.36 0
v -5.44 -3.36 0
v -5.6 -3.52 0
v -5.76 -3.52 0
v -5.76 -3.36 0
v -5.6 -3.36 0
v -5.76 -3.52 0
v -5.92 -3.52 0
v -5.92 -3.36 0
v -5.76 -3.36 0
v -5.92 -3.52 0
v -6.08 -3.52 0
v -6.08 -3.36 0
v -5.92 -3.36 0
v -6.08 -3.52 0
v -6.24 -3.52 0
v -6.24 -3.36 0
v -6.08 -3.36 0
v -6.24 -3.52 0
v -6.4 -3.52 0
v -6.4 -3.36 0
v -6.24 -3.36 0
v -6.24 -3.68 0
v -6.4 -3.68 0
v -6.4 -3.52 0
v -6.24 -3.52 0
v -8.16 -3.68 0
v -8.32 -3.68 0
v -8.32 -3.52 0
v -8.16 -3.52 0
v -6.24 -3.84 0
v -6.4 -3.84 0
v -6.4 -3.68 0
v -6.24 -3.68 0
v -6.24 -4 0
v -6.4 -4 0
v -6.4 -3.84 0
v -6.24 -3.84 0
v -6.24 -4.16 0
v -6.4 -4.16 0
v -6.4 -4 0
v -6.24 -4 0
v -6.24 -4.32 0
v -6.4 -4.32 0
v -6.4 -4.16 0
v -6.24 -4.16 0
v -6.24 -4.48 0
v -6.4 -4.48 0
v -6.4 -4.32 0
v -6.24 -4.32 0
v -6.24 -4.64 0
v -6.4 -4.64 0
v -6.4 -4.48 0
v -6.24 -4.48 0
v -6.24 -4.8 0
v -6.4 -4.8 0
v -6.4 -4.64 0
v -6.24 -4.64 0
v -6.24 -4.96 0
v -6.4 -4.96 0
v -6.4 -4.8 0
v -6.24 -4.8 0
v -6.08 -5.12 0
v -6.24 -5.12 0
v -6.24 -4.96 0
v -6.08 -4.96 0
v -6.08 -5.28 0
v -6.24 -5.28 0
v -6.24 -5.12 0
v -6.08 -5.12 0
v -6.08 -5.44 0
v -6.24 -5.44 0
v -6.24 -5.28 0
v -6.08 -5.28 0
v -4.96 -6.08 0
v -5.12 -6.08 0
v -5.12 -5.92 0
v -4.96 -5.92 0
v -4.96 -6.24 0
v -5.12 -6.24 0
v -5.12 -6.08 0
v -4.96 -6.08 0
v -5.12 -6.24 0
v -5.28 -6.24 0
v -5.28 -6.08 0
v -5.12 -6.08 0
v -4.96 -6.4 0
v -5.12 -6.4 0
v -5.12 -6.24 0
v -4.96 -6.24 0
v -5.12 -6.4 0
v -5.28 -6.4 0
v -5.28 -6.24 0
v -5.12 -6.24 0
v -5.28 -6.4 0
v -5.44 -6.4 0
v -5.44 -6.24 0
v -5.28 -6.24 0
v -5.12 -6.56 0
v -5.28 -6.56 0
v -5.28 -6.4 0
v -5.12 -6.4 0
v -5.28 -6.56 0
v -5.44 -6.56 0
v -5.44 -6.4 0
v -5.28 -6.4 0
v -5.44 -6.56 0
v -5.6 -6.56 0
v -5.6 -6.4 0
v -5.44 -6.4 0
v -5.28 -6.72 0
v -5.44 -6.72 0
v -5.44 -6.56 0
v -5.28 -6.56 0
v -5.44 -6.72 0
v -5.6 -6.72 0
v -5.6 -6.56 0
v -5.44 -6.56 0
v -5.6 -6.72 0
v -5.76 -6.72 0
v -5.76 -6.56 0
v -5.6 -6.56 0
v -5.44 -6.88 0
v -5.6 -6.88 0
v -5.6 -6.72 0
v -5.44 -6.72 0
v -5.6 -6.88 0
v -5.76 -6.88 0
v -5.76 -6.72 0
v -5.6 -6.72 0
v -5.76 -6.88 0
v -5.92 -6.88 0
v -5.92 -6.72 0
v -5.76 -6.72 0
v -5.6 -7.04 0
v -5.76 -7.04 0
v -5.76 -6.88 0
v -5.6 -6.88 0
v -5.76 -7.04 0
v -5.92 -7.04 0
v -5.92 -6.88 0
v -5.76 -6.88 0
v -5.92 -7.04 0
v -6.08 -7.04 0
v -6.08 -6.88 0
v -5.92 -6.88 0
v -5.76 -7.2 0
v -5.92 -7.2 0
v -5.92 -7.04 0
v -5.76 -7.04 0
v -5.92 -7.2 0
v -6.08 -7.2 0
v -6.08 -7.04 0
v -5.92 -7.04 0
v -6.08 -7.2 0
v -6.24 -7.2 0
v -6.24 -7.04 0
v -6.08 -7.04 0
v -5.92 -7.36 0
v -6.08 -7.36 0
v -6.08 -7.2 0
v -5.92 -7.2 0
v -6.08 -7.36 0
v -6.24 -7.36 0
v -6.24 -7.2 0
v -6.08 -7.2 0
v -6.24 -7.36 0
v -6.4 -7.36 0
v -6.4 -7.2 0
v -6.24 -7.2 0
v -6.08 -7.52 0
v -6.24 -7.52 0
v -6.24 -7.36 0
v -6.08 -7.36 0
v -6.24 -7.52 0
v -6.4 -7.52 0
v -6.4 -7.36 0
v -6.24 -7.36 0
v -6.4 -7.52 0
v -6.56 -7.52 0
v -6.56 -7.36 0
v -6.4 -7.36 0
v -6.24 -7.68 0
v -6.4 -7.68 0
v -6.4 -7.52 0
v -6.24 -7.52 0
v -6.4 -7.68 0
v -6.56 -7.68 0
v -6.56 -7.52 0
v -6.4 -7.52 0
v -6.56 -7.68 0
v -6.72 -7.68 0
v -6.72 -7.52 0
v -6.56 -7.52 0
v -6.4 -7.84 0
v -6.56 -7.84 0
v -6.56 -7.68 0
v -6.4 -7.68 0
v -6.56 -7.84 0
v -6.72 -7.84 0
v -6.72 -7.68 0
v -6.56 -7.68 0
v -6.72 -7.84 0
v -6.88 -7.84 0
v -6.88 -7.68 0
v -6.72 -7.68 0
v -6.56 -8 0
v -6.72 -8 0
v -6.72 -7.84 0
v -6.56 -7.84 0
v -6.72 -8 0
v -6.88 -8 0
v -6.88 -7.84 0
v -6.72 -7.84 0
v -6.88 -8 0
v -7.04 -8 0
v -7.04 -7.84 0
v -6.88 -7.84 0
v -6.72 -8.16 0
v -6.88 -8.16 0
v -6.88 -8 0
v -6.72 -8 0
v -6.88 -8.16 0
v -7.04 -8.16 0
v -7.04 -8 0
v -6.88 -8 0
v -7.04 -8.16 0
v -7.2 -8.16 0
v -7.2 -8 0
v -7.04 -8 0
v -1.76 -8.32 0
v -1.92 -8.32 0
v -1.92 -8.16 0
v -1.76 -8.16 0
v -6.88 -8.32 0
v -7.04 -8.32 0
v -7.04 -8.16 0
v -6.88 -8.16 0
v -7.04 -8.32 0
v -7.2 -8.32 0
v -7.2 -8.16 0
v -7.04 -8.16 0
v -7.2 -8.32 0
v -7.36 -8.32 0
v -7.36 -8.16 0
v -7.2 -8.16 0
v -1.76 -8.48 0
v -1.92 -8.48 0
v -1.92 -8.32 0
v -1.76 -8.32 0
v -7.04 -8.48 0
v -7.2 -8.48 0
v -7.2 -8.32 0
v -7.04 -8.32 0
v -7.2 -8.48 0
v -7.36 -8.48 0
v -7.36 -8.32 0
v -7.2 -8.32 0
v -7.36 -8.48 0
v -7.52 -8.48 0
v -7.52 -8.32 0
v -7.36 -8.32 0
v -1.76 -8.639999 0
v -1.92 -8.639999 0
v -1.92 -8.48 0
v -1.76 -8.48 0
v -7.2 -8.639999 0
v -7.36 -8.639999 0
v -7.36 -8.48 0
v -7.2 -8.48 0
v -7.36 -8.639999 0
v -7.52 -8.639999 0
v -7.52 -8.48 0
v -7.36 -8.48 0
v -7.52 -8.639999 0
v -7.68 -8.639999 0
v -7.68 -8.48 0
v -7.52 -8.48 0
v -1.76 -8.8 0
v -1.92 -8.8 0
v -1.92 -8.639999 0
v -1.76 -8.639999 0
v -7.36 -8.8 0
v -7.52 -8.8 0
v -7.52 -8.639999 0
v -7.36 -8.639999 0
v -7.52 -8.8 0
v -7.68 -8.8 0
v -7.68 -8.639999 0
v -7.52 -8.639999 0
v -7.68 -8.8 0
v -7.84 -8.8 0
v -7.84 -8.639999 0
v -7.68 -8.639999 0
v -1.76 -8.96 0
v -1.92 -8.96 0
v -1.92 -8.8 0
v -1.76 -8.8 0
v -7.52 -8.96 0
v -7.68 -8.96 0
v -7.68 -8.8 0
v -7.52 -8.8 0
v -7.68 -8.96 0
v -7.84 -8.96 0
v -7.84 -8.8 0
v -7.68 -8.8 0
v -7.84 -8.96 0
v -8 -8.96 0
v -8 -8.8 0
v -7.84 -8.8 0
v -1.76 -9.12 0
v -1.92 -9.12 0
v -1.92 -8.96 0
v -1.76 -8.96 0
v -7.68 -9.12 0
v -7.84 -9.12 0
v -7.84 -8.96 0
v -7.68 -8.96 0
v -7.84 -9.12 0
v -8 -9.12 0
v -8 -8.96 0
v -7.84 -8.96 0
v -1.76 -9.28 0
v -1.92 -9.28 0
v -1.92 -9.12 0
v -1.76 -9.12 0
v -1.76 -9.44 0
v -1.92 -9.44 0
v -1.92 -9.28 0
v -1.76 -9.28 0
v -1.76 -9.599999 0
v -1.92 -9.599999 0
v -1.92 -9.44 0
v -1.76 -9.44 0
v -1.76 -9.76 0
v -1.92 -9.76 0
v -1.92 -9.599999 0
v -1.76 -9.599999 0
v -1.76 -9.92 0
v -1.92 -9.92 0
v -1.92 -9.76 0
v -1.76 -9.76 0
v -0.16 -10.56 0
v -0.32 -10.56 0
v -0.32 -10.4 0
v -0.16 -10.4 0
v -1.28 -10.56 0
v -1.44 -10.56 0
v -1.44 -10.4 0
v -1.28 -10.4 0

# Texture cooridinates (Count = 28)
vt 0.4 0.5217391
vt 0.44 0.5217391
vt 0.44 0.5652174
vt 0.4 0.5652174
vt 0.6 0.3478261
vt 0.64 0.3478261
vt 0.64 0.3913043
vt 0.6 0.3913043
vt 0.68 0.3478261
vt 0.72 0.3478261
vt 0.72 0.3913043
vt 0.68 0.3913043
vt 0.76 0.3478261
vt 0.8 0.3478261
vt 0.8 0.3913043
vt 0.76 0.3913043
vt 0.48 0.5217391
vt 0.48 0.5652174
vt 0.88 0.7826087
vt 0.92 0.7826087
vt 0.92 0.8260869
vt 0.88 0.8260869
vt 0.88 0.7391304
vt 0.92 0.7391304
vt 0.76 0.5652174
vt 0.8 0.5652174
vt 0.8 0.6086956
vt 0.76 0.6086956

# Normal
vn 0 0 -1

# Mesh description
g level_02_mesh_0002

# Faces
f 1/1/1 2/2/1 3/3/1 4/4/1
f 5/5/1 6/6/1 7/7/1 8/8/1
f 9/9/1 10/10/1 11/11/1 12/12/1
f 13/9/1 14/10/1 15/11/1 16/12/1
f 17/9/1 18/10/1 19/11/1 20/12/1
f 21/9/1 22/10/1 23/11/1 24/12/1
f 25/9/1 26/10/1 27/11/1 28/12/1
f 29/9/1 30/10/1 31/11/1 32/12/1
f 33/9/1 34/10/1 35/11/1 36/12/1
f 37/9/1 38/10/1 39/11/1 40/12/1
f 41/9/1 42/10/1 43/11/1 44/12/1
f 45/9/1 46/10/1 47/11/1 48/12/1
f 49/9/1 50/10/1 51/11/1 52/12/1
f 53/9/1 54/10/1 55/11/1 56/12/1
f 57/9/1 58/10/1 59/11/1 60/12/1
f 61/9/1 62/10/1 63/11/1 64/12/1
f 65/9/1 66/10/1 67/11/1 68/12/1
f 69/13/1 70/14/1 71/15/1 72/16/1
f 73/2/1 74/17/1 75/18/1 76/3/1
f 77/2/1 78/17/1 79/18/1 80/3/1
f 81/1/1 82/2/1 83/3/1 84/4/1
f 85/2/1 86/17/1 87/18/1 88/3/1
f 89/2/1 90/17/1 91/18/1 92/3/1
f 93/2/1 94/17/1 95/18/1 96/3/1
f 97/2/1 98/17/1 99/18/1 100/3/1
f 101/2/1 102/17/1 103/18/1 104/3/1
f 105/2/1 106/17/1 107/18/1 108/3/1
f 109/2/1 110/17/1 111/18/1 112/3/1
f 113/2/1 114/17/1 115/18/1 116/3/1
f 117/2/1 118/17/1 119/18/1 120/3/1
f 121/2/1 122/17/1 123/18/1 124/3/1
f 125/2/1 126/17/1 127/18/1 128/3/1
f 129/19/1 130/20/1 131/21/1 132/22/1
f 133/20/1 134/19/1 135/23/1 136/24/1
f 137/19/1 138/20/1 139/21/1 140/22/1
f 141/21/1 142/22/1 143/19/1 144/20/1
f 145/20/1 146/19/1 147/23/1 148/24/1
f 149/19/1 150/20/1 151/21/1 152/22/1
f 153/21/1 154/22/1 155/19/1 156/20/1
f 157/20/1 158/19/1 159/23/1 160/24/1
f 161/19/1 162/20/1 163/21/1 164/22/1
f 165/21/1 166/22/1 167/19/1 168/20/1
f 169/20/1 170/19/1 171/23/1 172/24/1
f 173/19/1 174/20/1 175/21/1 176/22/1
f 177/21/1 178/22/1 179/19/1 180/20/1
f 181/20/1 182/19/1 183/23/1 184/24/1
f 185/19/1 186/20/1 187/21/1 188/22/1
f 189/21/1 190/22/1 191/19/1 192/20/1
f 193/20/1 194/19/1 195/23/1 196/24/1
f 197/19/1 198/20/1 199/21/1 200/22/1
f 201/21/1 202/22/1 203/19/1 204/20/1
f 205/20/1 206/19/1 207/23/1 208/24/1
f 209/19/1 210/20/1 211/21/1 212/22/1
f 213/21/1 214/22/1 215/19/1 216/20/1
f 217/20/1 218/19/1 219/23/1 220/24/1
f 221/19/1 222/20/1 223/21/1 224/22/1
f 225/21/1 226/22/1 227/19/1 228/20/1
f 229/20/1 230/19/1 231/23/1 232/24/1
f 233/19/1 234/20/1 235/21/1 236/22/1
f 237/21/1 238/22/1 239/19/1 240/20/1
f 241/20/1 242/19/1 243/23/1 244/24/1
f 245/19/1 246/20/1 247/21/1 248/22/1
f 249/21/1 250/22/1 251/19/1 252/20/1
f 253/20/1 254/19/1 255/23/1 256/24/1
f 257/19/1 258/20/1 259/21/1 260/22/1
f 261/21/1 262/22/1 263/19/1 264/20/1
f 265/20/1 266/19/1 267/23/1 268/24/1
f 269/19/1 270/20/1 271/21/1 272/22/1
f 273/21/1 274/22/1 275/19/1 276/20/1
f 277/20/1 278/19/1 279/23/1 280/24/1
f 281/19/1 282/20/1 283/21/1 284/22/1
f 285/25/1 286/26/1 287/27/1 288/28/1
f 289/21/1 290/22/1 291/19/1 292/20/1
f 293/20/1 294/19/1 295/23/1 296/24/1
f 297/19/1 298/20/1 299/21/1 300/22/1
f 301/25/1 302/26/1 303/27/1 304/28/1
f 305/21/1 306/22/1 307/19/1 308/20/1
f 309/20/1 310/19/1 311/23/1 312/24/1
f 313/19/1 314/20/1 315/21/1 316/22/1
f 317/25/1 318/26/1 319/27/1 320/28/1
f 321/21/1 322/22/1 323/19/1 324/20/1
f 325/20/1 326/19/1 327/23/1 328/24/1
f 329/19/1 330/20/1 331/21/1 332/22/1
f 333/25/1 334/26/1 335/27/1 336/28/1
f 337/21/1 338/22/1 339/19/1 340/20/1
f 341/20/1 342/19/1 343/23/1 344/24/1
f 345/19/1 346/20/1 347/21/1 348/22/1
f 349/25/1 350/26/1 351/27/1 352/28/1
f 353/21/1 354/22/1 355/19/1 356/20/1
f 357/20/1 358/19/1 359/23/1 360/24/1
f 361/19/1 362/20/1 363/21/1 364/22/1
f 365/25/1 366/26/1 367/27/1 368/28/1
f 369/21/1 370/22/1 371/19/1 372/20/1
f 373/23/1 374/24/1 375/20/1 376/19/1
f 377/25/1 378/26/1 379/27/1 380/28/1
f 381/25/1 382/26/1 383/27/1 384/28/1
f 385/25/1 386/26/1 387/27/1 388/28/1
f 389/25/1 390/26/1 391/27/1 392/28/1
f 393/25/1 394/26/1 395/27/1 396/28/1
f 397/1/1 398/2/1 399/3/1 400/4/1
f 401/1/1 402/2/1 403/3/1 404/4/1

